<svg xmlns="http://www.w3.org/2000/svg" width="50" height="50" viewBox="0 0 50 50">
  <!-- 배경 (투명) -->
  <rect width="50" height="50" fill="none"/>
  
  <!-- 얼굴 -->
  <circle cx="25" cy="20" r="15" fill="#deb887"/>
  
  <!-- 머리카락 (곱슬머리) -->
  <path d="M10,15 Q15,5 25,5 Q35,5 40,15" fill="#8b4513"/>
  <circle cx="15" cy="10" r="3" fill="#8b4513"/>
  <circle cx="20" cy="7" r="3" fill="#8b4513"/>
  <circle cx="30" cy="7" r="3" fill="#8b4513"/>
  <circle cx="35" cy="10" r="3" fill="#8b4513"/>
  
  <!-- 안경 -->
  <rect x="17" y="15" width="6" height="4" fill="none" stroke="#333" stroke-width="1" rx="1" ry="1"/>
  <rect x="27" y="15" width="6" height="4" fill="none" stroke="#333" stroke-width="1" rx="1" ry="1"/>
  <path d="M23,17 L27,17" fill="none" stroke="#333" stroke-width="1"/>
  
  <!-- 눈 -->
  <circle cx="20" cy="17" r="1" fill="#333"/>
  <circle cx="30" cy="17" r="1" fill="#333"/>
  
  <!-- 입 -->
  <path d="M20,25 Q25,28 30,25" fill="none" stroke="#333" stroke-width="1"/>
  
  <!-- 몸 -->
  <rect x="15" y="35" width="20" height="15" fill="#607d8b" rx="2" ry="2"/>
  <path d="M25,35 L25,50" fill="none" stroke="#222" stroke-width="1"/>
  <rect x="15" y="35" width="20" height="5" fill="#455a64"/>
</svg>