<svg xmlns="http://www.w3.org/2000/svg" width="800" height="600" viewBox="0 0 800 600">
  <!-- 배경 -->
  <rect width="800" height="600" fill="#f5f5f5"/>
  
  <!-- 바닥 -->
  <rect width="800" height="600" fill="#e0e0e0"/>
  
  <!-- 벽 -->
  <rect width="800" height="200" fill="#d0d0d0"/>
  
  <!-- 창문 -->
  <rect x="50" y="30" width="120" height="120" fill="#a5d6ff"/>
  <rect x="230" y="30" width="120" height="120" fill="#a5d6ff"/>
  <rect x="410" y="30" width="120" height="120" fill="#a5d6ff"/>
  <rect x="590" y="30" width="120" height="120" fill="#a5d6ff"/>
  
  <!-- 창문 프레임 -->
  <rect x="50" y="30" width="120" height="120" fill="none" stroke="#808080" stroke-width="5"/>
  <rect x="230" y="30" width="120" height="120" fill="none" stroke="#808080" stroke-width="5"/>
  <rect x="410" y="30" width="120" height="120" fill="none" stroke="#808080" stroke-width="5"/>
  <rect x="590" y="30" width="120" height="120" fill="none" stroke="#808080" stroke-width="5"/>
  
  <!-- 책상 -->
  <rect x="100" y="250" width="150" height="80" fill="#8b4513" rx="5" ry="5"/>
  <rect x="350" y="250" width="150" height="80" fill="#8b4513" rx="5" ry="5"/>
  <rect x="600" y="250" width="150" height="80" fill="#8b4513" rx="5" ry="5"/>
  <rect x="100" y="400" width="150" height="80" fill="#8b4513" rx="5" ry="5"/>
  <rect x="350" y="400" width="150" height="80" fill="#8b4513" rx="5" ry="5"/>
  <rect x="600" y="400" width="150" height="80" fill="#8b4513" rx="5" ry="5"/>
  
  <!-- 컴퓨터 -->
  <rect x="135" y="230" width="80" height="60" fill="#333" rx="2" ry="2"/>
  <rect x="385" y="230" width="80" height="60" fill="#333" rx="2" ry="2"/>
  <rect x="635" y="230" width="80" height="60" fill="#333" rx="2" ry="2"/>
  <rect x="135" y="380" width="80" height="60" fill="#333" rx="2" ry="2"/>
  <rect x="385" y="380" width="80" height="60" fill="#333" rx="2" ry="2"/>
  <rect x="635" y="380" width="80" height="60" fill="#333" rx="2" ry="2"/>
  
  <!-- 의자 -->
  <rect x="135" y="340" width="80" height="30" fill="#444" rx="5" ry="5"/>
  <rect x="385" y="340" width="80" height="30" fill="#444" rx="5" ry="5"/>
  <rect x="635" y="340" width="80" height="30" fill="#444" rx="5" ry="5"/>
  <rect x="135" y="490" width="80" height="30" fill="#444" rx="5" ry="5"/>
  <rect x="385" y="490" width="80" height="30" fill="#444" rx="5" ry="5"/>
  <rect x="635" y="490" width="80" height="30" fill="#444" rx="5" ry="5"/>
</svg>